PathFileType	4	(X/Y/Z)	C:/Users/opensim2020/Desktop/walking_exp_matlab/subject02_walking06_straight_01.trc	
DataRate	CameraRate	NumFrames	NumMarkers	Units	OrigDataRate	OrigDataStartFrame	OrigNumFrames	
100.00	100.00	8	41	mm	100.00	780	205	
Frame#	Time	LFHD			RFHD			LBHD			RBHD			C7			T10			CLAV			STRN			RBAK			LSHO			LUPA			LELB			LFRM			LWRA			LWRB			LFIN			RSHO			RUPA			RELB			RFRM			RWRA			RWRB			RFIN			LASI			RASI			LPSI			RPSI			LTHI			LKNE			LTIB			LANK			LHEE			LTOE			RTHI			RKNE			RTIB			RANK			RHEE			RTOE			*39			*40			
		X1	Y1	Z1	X2	Y2	Z2	X3	Y3	Z3	X4	Y4	Z4	X5	Y5	Z5	X6	Y6	Z6	X7	Y7	Z7	X8	Y8	Z8	X9	Y9	Z9	X10	Y10	Z10	X11	Y11	Z11	X12	Y12	Z12	X13	Y13	Z13	X14	Y14	Z14	X15	Y15	Z15	X16	Y16	Z16	X17	Y17	Z17	X18	Y18	Z18	X19	Y19	Z19	X20	Y20	Z20	X21	Y21	Z21	X22	Y22	Z22	X23	Y23	Z23	X24	Y24	Z24	X25	Y25	Z25	X26	Y26	Z26	X27	Y27	Z27	X28	Y28	Z28	X29	Y29	Z29	X30	Y30	Z30	X31	Y31	Z31	X32	Y32	Z32	X33	Y33	Z33	X34	Y34	Z34	X35	Y35	Z35	X36	Y36	Z36	X37	Y37	Z37	X38	Y38	Z38	X39	Y39	Z39	X40	Y40	Z40	X41	Y41	Z41	

26	0.250	1413.93958	-816.78796	1729.55896	1554.29065	-832.47424	1699.36487	1383.74500	-936.35455	1643.68848	1520.73840	-964.53680	1610.72205	1442.30566	-994.17877	1507.40845	1448.37964	-1061.93066	1236.12146	1435.34644	-859.75110	1433.02478	1438.66687	-816.71515	1257.99719	1502.18018	-1063.07361	1337.43274	1264.53137	-911.07941	1485.20435	1178.14197	-920.17944	1285.18616	1165.42468	-925.32294	1143.44983	1156.41370	-906.36151	1011.55524	1196.54150	-843.31232	893.30359	1159.97937	-885.97937	890.64075	1156.91492	-860.93811	830.36096	1630.75891	-924.28467	1463.19531	1712.24219	-982.56812	1281.32410	1734.34021	-989.60297	1136.20276	1761.34546	-979.24268	1018.22382	1750.21240	-947.38739	884.73077	1779.44946	-995.39233	889.74628	1786.21423	-968.62885	822.39563	1309.47229	-851.09528	955.35187	1559.34790	-822.61267	964.88965	1402.61743	-1049.58777	1013.45398	1519.83069	-1044.10376	1018.59778	1255.85229	-974.90033	652.62213	1270.81799	-1032.29053	471.13129	1275.11438	-1184.49707	357.26193	1297.80322	-1315.24207	176.34590	1354.89917	-1348.64258	184.26241	1300.73730	-1255.87354	28.91959	1639.73340	-836.35266	670.03943	1595.21545	-796.27802	466.18353	1603.71875	-816.79834	278.09109	1569.92566	-821.57776	85.61850	1516.81348	-856.98029	31.61594	1575.40503	-667.59766	35.46996	1494.68372	-934.67657	1777.59314	-3360.26758	2845.00562	1033.96130 
27	0.260	1416.64941	-808.02783	1730.96082	1557.07935	-823.43323	1700.69434	1386.61572	-927.68445	1645.11719	1523.69275	-955.73993	1612.32300	1445.28796	-985.36926	1508.71716	1451.11560	-1052.64929	1237.27722	1438.04163	-850.69940	1434.61230	1441.22852	-807.58307	1259.60828	1504.85730	-1053.46851	1338.09155	1267.39685	-902.50159	1486.80371	1180.60474	-912.98309	1287.36389	1168.14368	-919.47443	1145.43066	1158.49524	-902.37097	1013.36639	1197.58997	-841.46356	893.66302	1161.20044	-884.17438	892.02496	1158.39771	-859.95288	831.00885	1633.42981	-915.00140	1464.81653	1715.20557	-971.64795	1282.52332	1737.34521	-977.98761	1137.45105	1764.65588	-967.48755	1019.66901	1753.82068	-935.50220	886.09753	1783.05981	-983.48456	891.25641	1789.73438	-956.99847	823.95929	1313.29968	-841.34363	956.68262	1562.47620	-813.55457	965.90338	1405.26404	-1040.27466	1014.71307	1522.60400	-1034.60535	1019.85632	1258.17749	-959.89948	651.77472	1272.15454	-1012.70203	470.23022	1276.68323	-1165.74084	359.27463	1301.10876	-1300.97119	183.75984	1359.00317	-1332.49707	193.42415	1301.58350	-1249.60046	33.04092	1640.96826	-830.50513	670.21753	1596.32556	-791.53174	466.12238	1604.65601	-814.11688	278.01108	1570.05261	-821.08246	85.66476	1516.84644	-857.02600	31.64000	1575.25317	-667.23627	35.48998	1497.62915	-925.64502	1778.82544	-3360.34351	2845.15869	1033.95337 
28	0.270	1419.23560	-799.35907	1732.37256	1559.63574	-814.53870	1702.08606	1389.34729	-918.83807	1646.52222	1526.35303	-946.77954	1613.51001	1448.05505	-976.31207	1509.85168	1453.90576	-1043.52661	1238.54150	1440.57861	-841.71460	1436.14368	1443.90686	-798.33795	1261.18030	1507.96924	-1044.04834	1339.39209	1270.11255	-894.01068	1488.29773	1182.83521	-905.69885	1289.16064	1170.64722	-913.63800	1147.20325	1160.13232	-898.48572	1015.00836	1199.01331	-838.91821	894.09875	1162.54333	-881.32703	893.01251	1159.84351	-858.78381	831.54669	1636.02222	-905.57886	1466.35254	1718.35046	-961.00305	1283.94019	1740.46790	-966.53253	1138.77283	1767.86719	-955.64563	1021.04626	1757.38196	-923.28156	887.55634	1786.66248	-971.35443	892.70251	1793.78760	-944.64465	825.20807	1316.44446	-831.98438	958.02972	1565.62708	-804.01184	966.78583	1408.04822	-1031.16431	1016.00378	1525.36536	-1025.27393	1021.23529	1260.24792	-944.19495	651.25336	1273.42676	-992.28284	469.76733	1278.40222	-1146.86487	361.98221	1305.64087	-1286.01941	191.39372	1364.81616	-1314.62024	202.00983	1300.38684	-1240.99463	38.67297	1642.18127	-825.13367	670.14056	1597.46375	-787.07458	466.01123	1605.65002	-811.67450	278.01608	1570.18359	-820.73553	85.74949	1516.91711	-857.17780	31.75614	1575.06604	-667.25000	35.42439	1500.41907	-916.94690	1780.50159	-3360.30591	2845.05420	1033.78210 
29	0.280	1421.67529	-790.76672	1733.80688	1562.04285	-805.72198	1703.54456	1391.84399	-910.29730	1647.88574	1528.93811	-937.96143	1614.84985	1450.83276	-967.39032	1511.20422	1456.65686	-1034.49573	1239.84424	1442.98450	-832.84290	1437.56458	1446.35083	-789.34302	1262.65308	1510.98657	-1034.78369	1340.65967	1272.64001	-885.62518	1489.68591	1185.16101	-898.81628	1290.79944	1172.85986	-908.05249	1149.02039	1161.77563	-894.62372	1016.63055	1200.01648	-836.67682	894.67853	1163.80798	-879.31586	894.79504	1161.26355	-857.61511	832.33545	1638.62830	-895.88885	1467.76880	1721.27502	-950.19537	1285.17249	1743.56897	-954.98981	1140.01392	1771.13269	-943.58942	1022.35077	1760.87842	-910.74280	888.99261	1790.20093	-958.83636	894.04138	1797.42822	-931.98340	826.70142	1318.90527	-823.00226	959.44464	1568.08618	-795.30548	967.17743	1410.87854	-1022.27942	1017.23450	1528.12488	-1016.07233	1022.59204	1262.05701	-928.30670	651.57367	1274.77209	-971.83582	469.53503	1280.86438	-1127.84973	365.50732	1311.47839	-1270.40540	198.84042	1372.42114	-1296.58618	208.38455	1297.43042	-1229.21436	44.79940	1643.48633	-819.60547	670.45911	1598.67932	-783.05804	465.82153	1606.71729	-809.27393	278.02127	1570.43054	-820.46405	85.81705	1517.00427	-857.26733	31.75514	1575.07605	-667.24396	35.37407	1502.93970	-908.24213	1781.66223	-3360.31909	2845.07788	1033.97095 
30	0.290	1423.93066	-782.18298	1735.34204	1564.26318	-796.94867	1705.01331	1394.18567	-901.62866	1649.24548	1531.34424	-929.03662	1616.12695	1453.57324	-958.59094	1512.73535	1459.41663	-1025.54761	1241.24304	1445.25781	-824.02112	1439.03210	1448.77991	-780.25232	1264.04736	1513.81567	-1025.66248	1341.75720	1274.97705	-877.37732	1490.98279	1187.06360	-892.06934	1292.47363	1175.02014	-902.14581	1150.52185	1163.40625	-890.49823	1018.16620	1201.22449	-834.02783	895.19244	1164.73242	-876.82581	895.90454	1162.80139	-856.24091	833.02997	1641.04041	-886.35101	1469.10913	1724.20337	-939.40063	1286.33716	1746.78369	-943.44452	1141.20825	1774.46936	-931.30316	1023.71771	1764.32227	-897.90436	890.46466	1793.66248	-945.96002	895.29169	1801.11829	-918.71790	828.18518	1320.79553	-814.22449	960.94147	1570.31140	-786.61823	967.35248	1413.77625	-1013.50409	1018.44562	1530.88623	-1007.09399	1024.04578	1263.47302	-912.63586	652.33966	1276.19482	-951.42395	470.03778	1284.41357	-1108.64893	369.39471	1318.16113	-1253.90076	205.62025	1380.35022	-1278.79419	213.09720	1295.71191	-1214.54797	52.13153	1645.15649	-813.56537	671.26654	1599.99500	-779.38422	465.61417	1607.98352	-806.92682	277.93561	1570.70386	-820.22559	85.82914	1517.10229	-857.38971	31.73985	1575.20862	-667.27856	35.31068	1505.28271	-899.58344	1782.80774	-3360.19873	2845.08398	1033.81091 
31	0.300	1425.97510	-773.58990	1736.90979	1566.34790	-788.19232	1706.57117	1396.43835	-892.95135	1650.59509	1533.59949	-920.24310	1617.60596	1456.04590	-949.55371	1514.07581	1462.14343	-1016.71753	1242.67737	1447.45789	-815.21222	1440.45398	1450.67090	-771.87097	1265.19873	1516.85913	-1016.29236	1343.37097	1277.15320	-869.24365	1492.22424	1189.07214	-885.41785	1293.95081	1176.85498	-896.72107	1152.22107	1164.67664	-886.51343	1019.49084	1202.12122	-831.73193	895.80035	1165.62402	-874.41534	897.22046	1164.25916	-854.45184	833.77136	1643.40564	-876.56970	1470.40967	1727.03772	-928.52338	1287.53003	1750.00623	-931.87012	1142.37256	1777.70374	-918.87775	1025.03149	1767.63782	-884.79376	892.03772	1797.06653	-932.75989	896.54095	1804.70044	-904.93665	829.73553	1322.16296	-805.70709	962.46930	1572.44885	-778.06464	967.50433	1416.65234	-1004.89166	1019.60596	1533.44238	-998.39081	1025.52893	1264.72510	-896.97021	653.35248	1277.77747	-931.14166	471.11713	1288.76184	-1089.23035	373.33713	1324.81470	-1236.16736	211.82933	1387.58960	-1260.70813	216.47122	1294.86145	-1196.60779	59.45593	1647.04956	-806.67529	672.01031	1601.03882	-776.32837	465.15173	1609.14197	-804.71448	277.70377	1570.97705	-820.01190	85.77616	1517.12244	-857.44965	31.71157	1575.37573	-667.34875	35.25994	1507.55615	-891.13861	1784.37122	-3360.29810	2845.08105	1034.02734 
32	0.310	1428.08362	-764.99933	1738.71912	1568.30981	-779.45612	1708.16162	1398.50598	-884.43115	1651.98767	1535.69775	-911.39709	1618.88086	1458.56360	-940.70349	1515.58459	1464.86963	-1007.96924	1244.22937	1449.42773	-806.52472	1441.82751	1452.88342	-762.93121	1266.53918	1520.05664	-1007.63129	1345.22363	1279.23975	-861.19550	1493.43616	1190.52429	-878.65454	1295.27258	1178.57690	-891.17896	1153.79675	1165.85486	-882.46558	1021.12646	1203.22437	-828.74689	896.57312	1166.65295	-871.42065	898.48840	1165.78625	-852.48016	834.50873	1645.65100	-866.78259	1471.80957	1729.89941	-917.63568	1288.74792	1753.19739	-920.22418	1143.59790	1780.88110	-906.29285	1026.40674	1770.90576	-871.23627	893.73352	1800.41748	-919.20276	897.82642	1808.22046	-890.66565	831.40692	1323.37146	-797.20673	964.01971	1574.65039	-769.38660	967.92480	1419.45776	-996.35291	1020.83215	1535.92273	-989.97913	1027.04224	1265.88611	-881.28442	654.69775	1279.41785	-911.10883	472.66705	1293.68164	-1069.68286	376.95139	1331.09070	-1217.56787	217.15620	1393.69507	-1242.13049	219.09537	1294.47339	-1176.45361	66.19803	1648.81372	-799.62579	672.44800	1602.29370	-773.49152	464.76776	1610.08948	-802.88928	277.45810	1570.87549	-820.16504	85.51777	1517.12256	-857.64551	31.80054	1575.60156	-667.41193	35.20048	1509.54187	-882.56158	1785.65076	-3357.42432	2845.74731	1033.83911 
33	0.320	1429.59912	-756.64172	1740.03735	1570.09570	-770.71466	1709.70117	1400.47302	-875.87677	1653.35706	1537.77112	-902.72729	1620.46948	1461.03210	-932.01825	1517.16174	1467.60535	-999.30927	1245.74731	1451.35547	-797.80591	1443.15918	1454.70862	-754.32269	1267.77319	1523.17419	-998.81177	1347.02100	1281.26172	-853.20337	1494.60242	1192.73975	-872.46478	1296.70532	1180.09912	-886.10913	1155.44263	1167.00208	-878.56567	1022.73999	1204.12671	-825.85657	897.45483	1167.55396	-868.55023	899.82172	1166.78601	-850.25488	835.52039	1647.82324	-856.94971	1473.16187	1732.67725	-906.68408	1289.94299	1756.42285	-908.50867	1144.81555	1783.98376	-893.43182	1027.77344	1774.03333	-857.29852	895.53662	1803.67932	-905.36084	899.16907	1811.56006	-875.93671	833.15112	1324.33154	-789.13171	965.57184	1576.77820	-761.10089	968.36072	1422.19983	-987.81812	1022.00812	1538.34363	-981.68481	1028.47632	1267.05823	-865.19116	656.16803	1281.05920	-891.38617	474.45346	1298.78809	-1049.97705	380.04465	1336.52661	-1198.21912	220.87349	1399.39404	-1222.50659	221.22678	1294.93530	-1154.69592	71.87752	1650.60522	-793.10687	672.69910	1603.70447	-770.99670	464.32895	1610.73352	-801.56116	277.14893	1571.20190	-819.85712	85.68258	1516.96338	-857.74298	31.59642	1575.69446	-667.48492	34.96719	1511.39319	-873.98499	1787.10791	-3357.35986	2845.75049	1034.20288 
